<svg width="1446" height="370" viewBox="0 0 1446 370" fill="none" xmlns="http://www.w3.org/2000/svg">
<g clip-path="url(#clip0_164_387)">
<path d="M1016.46 365.764C1016.46 366.303 1016.9 366.736 1017.44 366.736H1444.16C1444.7 366.736 1445.13 366.303 1445.13 365.764C1445.13 365.224 1444.7 364.791 1444.16 364.791H1017.44C1016.9 364.791 1016.46 365.224 1016.46 365.764Z" fill="#3F3C57"/>
<path d="M1155.69 39.2695L1160.33 60.4496L1150.46 89.9301L1134.56 58.2556L1136.76 39.88L1155.69 39.2695Z" fill="#FDB4B4"/>
<path d="M1161.19 59.3525H1133.74V92.5353H1161.19V59.3525Z" fill="#3D70EC"/>
<path d="M1149.9 49.9378C1160.26 49.9378 1168.65 41.5407 1168.65 31.1823C1168.65 20.8239 1160.26 12.4268 1149.9 12.4268C1139.55 12.4268 1131.15 20.8239 1131.15 31.1823C1131.15 41.5407 1139.55 49.9378 1149.9 49.9378Z" fill="#FDB4B4"/>
<path d="M1133.58 45.129C1133.58 45.129 1119.6 19.3095 1132.2 6.88444C1144.81 -5.54058 1154.92 2.64673 1154.92 2.64673L1160.7 2.41321C1160.7 2.41321 1161.9 6.96052 1163.85 4.49887C1165.79 2.03722 1169.3 11.0022 1169.3 11.0022C1175.82 22.7395 1153.23 25.3689 1153.23 25.3689C1153.23 25.3689 1154.86 30.5658 1153.2 31.6542C1151.54 32.7425 1147.11 36.8367 1147.11 36.8367L1143.15 39.8318L1140.79 36.2411C1140.79 36.2411 1138.33 34.2979 1137.09 35.1142C1135.85 35.9305 1137.56 46.6705 1137.56 46.6705L1133.58 45.129Z" fill="#2E2E41"/>
<path d="M1111.08 235.079L1103.92 342.043L1121.54 342.64L1144.84 235.975L1111.08 235.079Z" fill="#2E2E41"/>
<path d="M1153.8 234.481L1146.63 341.445L1164.26 342.042L1187.56 235.378L1153.8 234.481Z" fill="#2E2E41"/>
<path d="M1106.77 259.517L1116.15 143.019L1101.76 82.3557C1100.52 73.3381 1106.2 64.8055 1114.97 62.4789L1129.05 58.7429L1135.28 52.5098L1149.45 83.817L1158.31 52.5336L1165.21 57.5557L1185.68 66.5911L1185.68 66.8027L1182.39 140.084L1189.72 258.48L1189.4 258.484L1106.77 259.517Z" fill="#E8E9EA"/>
<path d="M1163.12 340.827L1168.23 356.065C1168.23 356.065 1188.19 358.78 1188.5 364.962C1188.81 371.144 1161.37 367.565 1145.3 368.373C1129.23 369.181 1142.61 351.775 1142.61 351.775L1144.32 341.773L1163.12 340.827Z" fill="#2E2E41"/>
<path d="M1121.45 339.729L1126.55 354.967C1126.55 354.967 1146.52 357.682 1146.83 363.864C1147.14 370.046 1119.69 366.468 1103.62 367.276C1087.56 368.083 1100.93 350.677 1100.93 350.677L1102.64 340.675L1121.45 339.729Z" fill="#2E2E41"/>
<path d="M1096.55 197.646C1096.34 194.641 1096.84 191.629 1098.03 188.86L1094.22 157.61L1109.14 156.232L1111.4 188.08C1112.89 190.692 1113.75 193.624 1113.88 196.632C1114.32 204.157 1110.8 210.481 1106.01 210.76C1101.22 211.039 1096.99 205.168 1096.55 197.646Z" fill="#FDB4B4"/>
<path d="M1191.05 202.233C1190.86 199.226 1191.4 196.219 1192.62 193.464L1189.15 162.174L1204.09 160.959L1205.99 192.83C1207.47 195.457 1208.29 198.399 1208.39 201.408C1208.74 208.937 1205.15 215.222 1200.36 215.449C1195.57 215.676 1191.4 209.759 1191.05 202.233Z" fill="#FDB4B4"/>
<path d="M1094.16 185.114L1094.11 184.844L1086.33 143.115L1095.52 75.1642C1096.34 69.0976 1101.76 64.7275 1107.86 65.2159C1111.05 65.4713 1113.91 66.9844 1115.92 69.4769C1117.93 71.9695 1118.8 75.0886 1118.37 78.26L1111.45 129.222L1115.8 183.731L1094.16 185.114Z" fill="#E8E9EA"/>
<path d="M1186.44 184.135L1170.81 79.7601C1169.99 76.6996 1170.47 73.4968 1172.15 70.7751C1173.84 68.0534 1176.49 66.1977 1179.62 65.5494C1185.62 64.3093 1191.54 67.9745 1193.1 73.8924L1208.12 182.824L1186.44 184.135Z" fill="#E8E9EA"/>
<path d="M1149.91 93.3579C1150.97 93.3579 1151.83 92.4984 1151.83 91.4382C1151.83 90.378 1150.97 89.5186 1149.91 89.5186C1148.85 89.5186 1147.99 90.378 1147.99 91.4382C1147.99 92.4984 1148.85 93.3579 1149.91 93.3579Z" fill="#D6D7D8"/>
<path d="M1149.91 107.892C1150.97 107.892 1151.83 107.033 1151.83 105.972C1151.83 104.912 1150.97 104.053 1149.91 104.053C1148.85 104.053 1147.99 104.912 1147.99 105.972C1147.99 107.033 1148.85 107.892 1149.91 107.892Z" fill="#D6D7D8"/>
<path d="M1149.91 122.427C1150.97 122.427 1151.83 121.568 1151.83 120.508C1151.83 119.447 1150.97 118.588 1149.91 118.588C1148.85 118.588 1147.99 119.447 1147.99 120.508C1147.99 121.568 1148.85 122.427 1149.91 122.427Z" fill="#D6D7D8"/>
<path d="M1149.91 136.961C1150.97 136.961 1151.83 136.102 1151.83 135.042C1151.83 133.982 1150.97 133.122 1149.91 133.122C1148.85 133.122 1147.99 133.982 1147.99 135.042C1147.99 136.102 1148.85 136.961 1149.91 136.961Z" fill="#D6D7D8"/>
<path d="M1149.91 151.497C1150.97 151.497 1151.83 150.637 1151.83 149.577C1151.83 148.517 1150.97 147.657 1149.91 147.657C1148.85 147.657 1147.99 148.517 1147.99 149.577C1147.99 150.637 1148.85 151.497 1149.91 151.497Z" fill="#D6D7D8"/>
<path d="M1149.91 166.031C1150.97 166.031 1151.83 165.171 1151.83 164.111C1151.83 163.051 1150.97 162.191 1149.91 162.191C1148.85 162.191 1147.99 163.051 1147.99 164.111C1147.99 165.171 1148.85 166.031 1149.91 166.031Z" fill="#D6D7D8"/>
<path d="M1149.91 180.565C1150.97 180.565 1151.83 179.705 1151.83 178.645C1151.83 177.585 1150.97 176.726 1149.91 176.726C1148.85 176.726 1147.99 177.585 1147.99 178.645C1147.99 179.705 1148.85 180.565 1149.91 180.565Z" fill="#D6D7D8"/>
<path d="M1149.91 195.1C1150.97 195.1 1151.83 194.241 1151.83 193.18C1151.83 192.12 1150.97 191.261 1149.91 191.261C1148.85 191.261 1147.99 192.12 1147.99 193.18C1147.99 194.241 1148.85 195.1 1149.91 195.1Z" fill="#D6D7D8"/>
<path d="M1149.91 206.343L1113.6 201.503L1112.9 201.41L1094.34 158.607L1083.29 133.123H1112.08L1149.91 206.343Z" fill="#3D70EC"/>
<path d="M1295.51 43.9253L1318.6 31.2744V67.4197H1291.9L1295.51 43.9253Z" fill="#2E2E41"/>
<path d="M1323.55 51.984L1325.68 69.7292L1310.33 100.317L1300.79 71.8478L1305.28 51.3945L1323.55 51.984Z" fill="#FDB4B4"/>
<path d="M1326.48 70.7891H1299.96V102.833H1326.48V70.7891Z" fill="#3D70EC"/>
<path d="M1348.35 240.485L1355.27 343.778L1338.25 344.356L1315.75 241.351L1348.35 240.485Z" fill="#2E2E41"/>
<path d="M1307.1 239.908L1314.02 343.201L1297 343.778L1274.5 240.774L1307.1 239.908Z" fill="#2E2E41"/>
<path d="M1366.33 262.394L1365.93 262.393L1257.5 262.038L1257.6 261.655L1285.48 151.189L1278.49 95.441C1277.17 84.8774 1282.83 74.8926 1292.56 70.5957L1296.08 69.0446L1302.76 64.1867L1311.3 94.3832L1324.98 64.1631L1331.01 70.1907L1344.6 73.7979C1353.07 76.046 1358.56 84.2908 1357.37 92.976L1357.35 93.0364L1336.6 152.279L1366.33 262.394Z" fill="#E8E9EA"/>
<path d="M1298.1 342.604L1316.26 343.517L1317.91 353.177C1317.91 353.177 1330.83 369.986 1315.31 369.205C1299.79 368.425 1273.29 371.881 1273.59 365.911C1273.89 359.941 1293.17 357.319 1293.17 357.319L1298.1 342.604Z" fill="#2E2E41"/>
<path d="M1338.34 341.546L1356.5 342.459L1358.15 352.118C1358.15 352.118 1371.07 368.927 1355.55 368.147C1340.04 367.367 1313.53 370.822 1313.83 364.853C1314.13 358.883 1333.41 356.261 1333.41 356.261L1338.34 341.546Z" fill="#2E2E41"/>
<path d="M1354.97 203.278C1354.55 210.542 1350.46 216.211 1345.84 215.942C1341.22 215.672 1337.81 209.565 1338.24 202.299C1338.37 199.394 1339.19 196.562 1340.64 194.04L1342.82 163.285L1357.22 164.616L1353.55 194.794C1354.69 197.467 1355.18 200.376 1354.97 203.278Z" fill="#FDB4B4"/>
<path d="M1280.93 200.516C1280.36 207.769 1276.15 213.35 1271.53 212.982C1266.92 212.614 1263.64 206.436 1264.22 199.181C1264.41 196.279 1265.3 193.465 1266.8 190.975L1269.63 160.273L1284.01 161.91L1279.69 192.003C1280.78 194.7 1281.2 197.619 1280.93 200.516Z" fill="#FDB4B4"/>
<path d="M1357.29 191.186L1336.37 189.85L1336.39 189.536L1340.57 137.202L1333.9 87.9893C1333.48 84.924 1334.32 81.9089 1336.26 79.4997C1338.2 77.0903 1340.96 75.6277 1344.05 75.3808C1349.95 74.9153 1355.19 79.1331 1355.98 84.9969L1364.85 150.618L1364.84 150.667L1357.29 191.186Z" fill="#E8E9EA"/>
<path d="M1284.42 189.182L1263.46 187.914L1263.5 187.583L1277.96 82.7452C1279.48 76.9872 1285.2 73.4456 1290.99 74.6436C1294.02 75.2702 1296.59 77.064 1298.21 79.695C1299.84 82.326 1300.3 85.4215 1299.51 88.4119L1284.42 189.182Z" fill="#E8E9EA"/>
<path d="M1310.86 103.628C1311.88 103.628 1312.71 102.798 1312.71 101.774C1312.71 100.75 1311.88 99.9199 1310.86 99.9199C1309.83 99.9199 1309 100.75 1309 101.774C1309 102.798 1309.83 103.628 1310.86 103.628Z" fill="#D6D7D8"/>
<path d="M1310.86 117.663C1311.88 117.663 1312.71 116.833 1312.71 115.809C1312.71 114.785 1311.88 113.955 1310.86 113.955C1309.83 113.955 1309 114.785 1309 115.809C1309 116.833 1309.83 117.663 1310.86 117.663Z" fill="#D6D7D8"/>
<path d="M1310.86 131.699C1311.88 131.699 1312.71 130.869 1312.71 129.845C1312.71 128.821 1311.88 127.991 1310.86 127.991C1309.83 127.991 1309 128.821 1309 129.845C1309 130.869 1309.83 131.699 1310.86 131.699Z" fill="#D6D7D8"/>
<path d="M1310.86 145.735C1311.88 145.735 1312.71 144.905 1312.71 143.881C1312.71 142.857 1311.88 142.027 1310.86 142.027C1309.83 142.027 1309 142.857 1309 143.881C1309 144.905 1309.83 145.735 1310.86 145.735Z" fill="#D6D7D8"/>
<path d="M1310.86 159.771C1311.88 159.771 1312.71 158.941 1312.71 157.917C1312.71 156.893 1311.88 156.063 1310.86 156.063C1309.83 156.063 1309 156.893 1309 157.917C1309 158.941 1309.83 159.771 1310.86 159.771Z" fill="#D6D7D8"/>
<path d="M1310.86 173.806C1311.88 173.806 1312.71 172.976 1312.71 171.952C1312.71 170.929 1311.88 170.099 1310.86 170.099C1309.83 170.099 1309 170.929 1309 171.952C1309 172.976 1309.83 173.806 1310.86 173.806Z" fill="#D6D7D8"/>
<path d="M1310.86 187.842C1311.88 187.842 1312.71 187.012 1312.71 185.989C1312.71 184.965 1311.88 184.135 1310.86 184.135C1309.83 184.135 1309 184.965 1309 185.989C1309 187.012 1309.83 187.842 1310.86 187.842Z" fill="#D6D7D8"/>
<path d="M1310.86 201.878C1311.88 201.878 1312.71 201.049 1312.71 200.025C1312.71 199.001 1311.88 198.171 1310.86 198.171C1309.83 198.171 1309 199.001 1309 200.025C1309 201.049 1309.83 201.878 1310.86 201.878Z" fill="#D6D7D8"/>
<path d="M1313.67 61.0403C1323.24 61.0403 1331 53.2771 1331 43.7008C1331 34.1245 1323.24 26.3613 1313.67 26.3613C1304.1 26.3613 1296.33 34.1245 1296.33 43.7008C1296.33 53.2771 1304.1 61.0403 1313.67 61.0403Z" fill="#FDB4B4"/>
<path d="M1322.75 23.4594C1323.58 25.1492 1322.27 27.2601 1320.52 27.9705C1318.78 28.681 1316.81 28.3931 1314.95 28.0974C1313.09 27.8017 1311.12 27.5212 1309.38 28.2443C1307.13 29.1798 1305.86 31.5266 1304.77 33.7043C1302.73 37.7698 1300.69 41.8353 1298.65 45.9008C1297.66 47.8871 1296.64 49.9627 1296.62 52.185C1296.58 56.2642 1299.82 59.5241 1301.56 63.2132C1303.68 67.7049 1303.5 73.2095 1301.1 77.5577C1298.7 81.9058 1294.14 84.9866 1289.21 85.5859C1287.91 85.7435 1286.54 85.7264 1285.37 85.1371C1284.21 84.5477 1283.32 83.2607 1283.53 81.9718C1283.96 79.451 1287.81 78.862 1288.51 76.4059C1288.88 75.1238 1288.23 73.7545 1287.35 72.7531C1286.47 71.7517 1285.35 70.9705 1284.51 69.9346C1282.57 67.546 1282.44 63.8588 1284.21 61.3404C1285.25 59.8603 1286.85 58.7607 1287.53 57.0818C1288.1 55.6508 1287.89 54.0422 1287.67 52.5163C1287.4 50.5556 1287.12 48.5949 1286.84 46.6342C1286.51 44.3467 1286.19 41.9771 1286.84 39.7576C1288.31 34.6713 1294.05 32.2825 1297.42 28.197C1298.98 26.2985 1300.03 24.0152 1301.64 22.1509C1304.33 19.0223 1308.57 17.2964 1312.69 17.6552C1316.8 18.0139 1320.68 20.4482 1322.79 23.996" fill="#2E2E41"/>
<path d="M1320.02 23.7803C1319.17 24.0832 1318.86 25.1866 1319.1 26.0526C1319.34 26.9186 1319.98 27.6067 1320.57 28.2906C1327.18 36.0265 1328.71 47.7278 1324.32 56.9079C1323.16 59.3497 1321.6 61.6477 1320.97 64.28C1320.51 66.1953 1320.54 68.2962 1319.48 69.9543C1318.39 71.6424 1316.25 72.7735 1316.04 74.7673C1315.9 76.0467 1316.68 77.2895 1317.73 78.0396C1318.77 78.7897 1320.05 79.133 1321.31 79.4128C1324.57 80.1402 1327.91 80.5373 1331.25 80.5961C1332.34 80.6152 1333.46 80.5916 1334.46 80.1573C1335.46 79.7229 1336.32 78.7809 1336.33 77.6907C1336.34 76.8338 1335.84 76.0434 1335.78 75.1888C1335.59 72.6282 1339.04 71.2659 1339.71 68.7876C1340.15 67.1583 1339.28 65.4816 1338.35 64.0704C1337.43 62.6593 1336.37 61.1774 1336.39 59.4895C1336.41 57.8736 1337.43 56.4506 1337.82 54.8834C1338.37 52.7156 1337.7 50.4481 1337.03 48.3138C1336.47 46.4992 1335.9 44.6847 1335.34 42.8702C1334.74 40.9412 1334.14 39.0123 1333.54 37.0834C1332.49 33.7159 1331.39 30.2508 1329.12 27.5499C1326.86 24.849 1323.1 23.0788 1319.75 24.1815" fill="#2E2E41"/>
<path d="M1331.83 90.9708L1330.64 90.6244C1333.12 82.1348 1327.78 66.2919 1327.73 66.133L1328.9 65.7334C1329.12 66.398 1334.41 82.1094 1331.83 90.9708Z" fill="#3F3C57"/>
<path d="M1331.24 100.722C1334.09 100.722 1336.41 98.4069 1336.41 95.551C1336.41 92.6951 1334.09 90.3799 1331.24 90.3799C1328.38 90.3799 1326.07 92.6951 1326.07 95.551C1326.07 98.4069 1328.38 100.722 1331.24 100.722Z" fill="#3F3C57"/>
<path d="M1297.27 113.858H1294.13C1293.79 113.858 1293.51 113.581 1293.51 113.239C1293.51 112.897 1293.79 112.62 1294.13 112.62H1297.27C1298.13 112.62 1298.94 112.283 1299.55 111.671C1300.16 111.06 1300.5 110.247 1300.5 109.383L1300.46 90.0669C1300.46 85.8706 1297.05 82.4577 1292.85 82.4577C1288.66 82.4577 1285.24 85.8706 1285.24 90.0657L1285.28 108.146C1285.29 109.91 1286.72 111.356 1288.49 111.369L1290.64 111.386C1290.98 111.388 1291.26 111.667 1291.25 112.01C1291.25 112.35 1290.97 112.624 1290.63 112.624H1290.63L1288.48 112.607C1286.04 112.589 1284.05 110.588 1284.05 108.148L1284.01 90.0669C1284.01 85.1881 1287.97 81.2197 1292.85 81.2197C1297.73 81.2197 1301.7 85.1881 1301.7 90.0657L1301.73 109.381C1301.74 110.576 1301.27 111.7 1300.43 112.546C1299.58 113.392 1298.46 113.858 1297.27 113.858Z" fill="#3F3C57"/>
<path d="M1290.64 114.199C1291.85 114.199 1292.83 113.217 1292.83 112.005C1292.83 110.794 1291.85 109.812 1290.64 109.812C1289.42 109.812 1288.44 110.794 1288.44 112.005C1288.44 113.217 1289.42 114.199 1290.64 114.199Z" fill="#3F3C57"/>
<path d="M1294.13 115.433C1295.34 115.433 1296.32 114.45 1296.32 113.239C1296.32 112.027 1295.34 111.045 1294.13 111.045C1292.92 111.045 1291.94 112.027 1291.94 113.239C1291.94 114.45 1292.92 115.433 1294.13 115.433Z" fill="#3F3C57"/>
<path d="M1167.51 81.6926L1166.32 81.3462C1168.79 72.8566 1163.52 56.7684 1163.46 56.6094L1164.95 57.7292C1165.17 58.3938 1170.09 72.8312 1167.51 81.6926Z" fill="#3F3C57"/>
<path d="M1125.74 83.2011L1126.93 82.8547C1124.45 74.3651 1129.79 58.5223 1129.85 58.3633L1128.57 59.2148C1128.35 59.8795 1123.16 74.3397 1125.74 83.2011Z" fill="#3F3C57"/>
<path d="M1166.91 91.4437C1169.77 91.4437 1172.08 89.1285 1172.08 86.2726C1172.08 83.4167 1169.77 81.1016 1166.91 81.1016C1164.06 81.1016 1161.74 83.4167 1161.74 86.2726C1161.74 89.1285 1164.06 91.4437 1166.91 91.4437Z" fill="#3F3C57"/>
<path d="M1131.25 115.001H1128.12C1127.78 115.001 1127.5 114.724 1127.5 114.382C1127.5 114.04 1127.78 113.763 1128.12 113.763H1131.25C1132.12 113.763 1132.93 113.427 1133.54 112.815C1134.15 112.203 1134.48 111.391 1134.48 110.527L1134.44 91.2105C1134.44 87.0142 1131.03 83.6013 1126.84 83.6013C1122.64 83.6013 1119.23 87.0142 1119.23 91.2093L1119.27 109.29C1119.27 111.053 1120.71 112.499 1122.47 112.513L1124.63 112.529C1124.97 112.532 1125.24 112.811 1125.24 113.153C1125.24 113.493 1124.96 113.767 1124.62 113.767H1124.62L1122.46 113.751C1120.03 113.732 1118.04 111.732 1118.03 109.292L1117.99 91.2105C1117.99 86.3317 1121.96 82.3633 1126.84 82.3633C1131.71 82.3633 1135.68 86.3317 1135.68 91.2093L1135.72 110.525C1135.72 111.72 1135.26 112.844 1134.41 113.689C1133.57 114.535 1132.45 115.001 1131.25 115.001Z" fill="#3F3C57"/>
<path d="M1124.62 115.342C1125.83 115.342 1126.81 114.36 1126.81 113.148C1126.81 111.936 1125.83 110.954 1124.62 110.954C1123.41 110.954 1122.43 111.936 1122.43 113.148C1122.43 114.36 1123.41 115.342 1124.62 115.342Z" fill="#3F3C57"/>
<path d="M1128.12 116.576C1129.33 116.576 1130.31 115.594 1130.31 114.382C1130.31 113.171 1129.33 112.188 1128.12 112.188C1126.91 112.188 1125.92 113.171 1125.92 114.382C1125.92 115.594 1126.91 116.576 1128.12 116.576Z" fill="#3F3C57"/>
<path d="M1017.43 365.142H216.353" stroke="black"/>
</g>
<g clip-path="url(#clip1_164_387)">
<path d="M1015.32 365.764C1015.32 366.303 1015.75 366.736 1016.29 366.736H1443.01C1443.55 366.736 1443.98 366.303 1443.98 365.764C1443.98 365.224 1443.55 364.791 1443.01 364.791H1016.29C1015.75 364.791 1015.32 365.224 1015.32 365.764Z" fill="#3F3C57"/>
<path d="M1154.55 39.2695L1159.19 60.4496L1149.32 89.9301L1133.41 58.2556L1135.62 39.88L1154.55 39.2695Z" fill="#FDB4B4"/>
<path d="M1160.05 59.3525H1132.59V92.5353H1160.05V59.3525Z" fill="#3D70EC"/>
<path d="M1148.76 49.9378C1159.11 49.9378 1167.51 41.5407 1167.51 31.1823C1167.51 20.8239 1159.11 12.4268 1148.76 12.4268C1138.4 12.4268 1130.01 20.8239 1130.01 31.1823C1130.01 41.5407 1138.4 49.9378 1148.76 49.9378Z" fill="#FDB4B4"/>
<path d="M1132.43 45.129C1132.43 45.129 1118.46 19.3095 1131.06 6.88444C1143.66 -5.54058 1153.78 2.64673 1153.78 2.64673L1159.56 2.41321C1159.56 2.41321 1160.76 6.96052 1162.7 4.49887C1164.65 2.03722 1168.16 11.0022 1168.16 11.0022C1174.67 22.7395 1152.08 25.3689 1152.08 25.3689C1152.08 25.3689 1153.71 30.5658 1152.06 31.6542C1150.4 32.7425 1145.97 36.8367 1145.97 36.8367L1142 39.8318L1139.65 36.2411C1139.65 36.2411 1137.19 34.2979 1135.94 35.1142C1134.7 35.9305 1136.41 46.6705 1136.41 46.6705L1132.43 45.129Z" fill="#2E2E41"/>
<path d="M1109.94 235.079L1102.77 342.043L1120.39 342.64L1143.69 235.975L1109.94 235.079Z" fill="#2E2E41"/>
<path d="M1152.66 234.481L1145.49 341.445L1163.11 342.042L1186.41 235.378L1152.66 234.481Z" fill="#2E2E41"/>
<path d="M1105.62 259.517L1115.01 143.019L1100.62 82.3557C1099.38 73.3381 1105.06 64.8055 1113.82 62.4789L1127.9 58.7429L1134.13 52.5098L1148.31 83.817L1157.16 52.5336L1164.06 57.5557L1184.54 66.5911L1184.53 66.8027L1181.25 140.084L1188.58 258.48L1188.25 258.484L1105.62 259.517Z" fill="#E8E9EA"/>
<path d="M1161.98 340.827L1167.08 356.065C1167.08 356.065 1187.05 358.78 1187.36 364.962C1187.67 371.144 1160.22 367.565 1144.15 368.373C1128.09 369.181 1141.46 351.775 1141.46 351.775L1143.17 341.773L1161.98 340.827Z" fill="#2E2E41"/>
<path d="M1120.3 339.729L1125.41 354.967C1125.41 354.967 1145.37 357.682 1145.68 363.864C1145.99 370.046 1118.55 366.468 1102.48 367.276C1086.41 368.083 1099.79 350.677 1099.79 350.677L1101.5 340.675L1120.3 339.729Z" fill="#2E2E41"/>
<path d="M1095.41 197.646C1095.19 194.641 1095.7 191.629 1096.88 188.86L1093.07 157.61L1107.99 156.232L1110.25 188.08C1111.75 190.692 1112.6 193.624 1112.74 196.632C1113.18 204.157 1109.65 210.481 1104.87 210.76C1100.08 211.039 1095.84 205.168 1095.41 197.646Z" fill="#FDB4B4"/>
<path d="M1189.9 202.233C1189.72 199.226 1190.26 196.219 1191.47 193.464L1188.01 162.174L1202.94 160.959L1204.85 192.83C1206.32 195.457 1207.14 198.399 1207.24 201.408C1207.6 208.937 1204.01 215.222 1199.22 215.449C1194.43 215.676 1190.26 209.759 1189.9 202.233Z" fill="#FDB4B4"/>
<path d="M1093.01 185.114L1092.96 184.844L1085.19 143.115L1094.38 75.1642C1095.19 69.0976 1100.61 64.7275 1106.72 65.2159C1109.91 65.4713 1112.77 66.9844 1114.78 69.4769C1116.78 71.9695 1117.65 75.0886 1117.22 78.26L1110.31 129.222L1114.66 183.731L1093.01 185.114Z" fill="#E8E9EA"/>
<path d="M1185.29 184.135L1169.66 79.7601C1168.85 76.6996 1169.33 73.4968 1171.01 70.7751C1172.69 68.0534 1175.34 66.1977 1178.48 65.5494C1184.47 64.3093 1190.39 67.9745 1191.96 73.8924L1206.97 182.824L1185.29 184.135Z" fill="#E8E9EA"/>
<path d="M1148.77 93.3579C1149.83 93.3579 1150.69 92.4984 1150.69 91.4382C1150.69 90.378 1149.83 89.5186 1148.77 89.5186C1147.71 89.5186 1146.85 90.378 1146.85 91.4382C1146.85 92.4984 1147.71 93.3579 1148.77 93.3579Z" fill="#D6D7D8"/>
<path d="M1148.77 107.892C1149.83 107.892 1150.69 107.033 1150.69 105.972C1150.69 104.912 1149.83 104.053 1148.77 104.053C1147.71 104.053 1146.85 104.912 1146.85 105.972C1146.85 107.033 1147.71 107.892 1148.77 107.892Z" fill="#D6D7D8"/>
<path d="M1148.77 122.427C1149.83 122.427 1150.69 121.568 1150.69 120.508C1150.69 119.447 1149.83 118.588 1148.77 118.588C1147.71 118.588 1146.85 119.447 1146.85 120.508C1146.85 121.568 1147.71 122.427 1148.77 122.427Z" fill="#D6D7D8"/>
<path d="M1148.77 136.961C1149.83 136.961 1150.69 136.102 1150.69 135.042C1150.69 133.982 1149.83 133.122 1148.77 133.122C1147.71 133.122 1146.85 133.982 1146.85 135.042C1146.85 136.102 1147.71 136.961 1148.77 136.961Z" fill="#D6D7D8"/>
<path d="M1148.77 151.497C1149.83 151.497 1150.69 150.637 1150.69 149.577C1150.69 148.517 1149.83 147.657 1148.77 147.657C1147.71 147.657 1146.85 148.517 1146.85 149.577C1146.85 150.637 1147.71 151.497 1148.77 151.497Z" fill="#D6D7D8"/>
<path d="M1148.77 166.031C1149.83 166.031 1150.69 165.171 1150.69 164.111C1150.69 163.051 1149.83 162.191 1148.77 162.191C1147.71 162.191 1146.85 163.051 1146.85 164.111C1146.85 165.171 1147.71 166.031 1148.77 166.031Z" fill="#D6D7D8"/>
<path d="M1148.77 180.565C1149.83 180.565 1150.69 179.705 1150.69 178.645C1150.69 177.585 1149.83 176.726 1148.77 176.726C1147.71 176.726 1146.85 177.585 1146.85 178.645C1146.85 179.705 1147.71 180.565 1148.77 180.565Z" fill="#D6D7D8"/>
<path d="M1148.77 195.1C1149.83 195.1 1150.69 194.241 1150.69 193.18C1150.69 192.12 1149.83 191.261 1148.77 191.261C1147.71 191.261 1146.85 192.12 1146.85 193.18C1146.85 194.241 1147.71 195.1 1148.77 195.1Z" fill="#D6D7D8"/>
<path d="M1148.77 206.343L1112.46 201.503L1111.76 201.41L1093.2 158.607L1082.14 133.123H1110.93L1148.77 206.343Z" fill="#3D70EC"/>
<path d="M1294.37 43.9253L1317.46 31.2744V67.4197H1290.76L1294.37 43.9253Z" fill="#2E2E41"/>
<path d="M1322.41 51.984L1324.54 69.7292L1309.18 100.317L1299.65 71.8478L1304.13 51.3945L1322.41 51.984Z" fill="#FDB4B4"/>
<path d="M1325.33 70.7891H1298.82V102.833H1325.33V70.7891Z" fill="#3D70EC"/>
<path d="M1347.21 240.485L1354.13 343.778L1337.11 344.356L1314.61 241.351L1347.21 240.485Z" fill="#2E2E41"/>
<path d="M1305.96 239.908L1312.88 343.201L1295.86 343.778L1273.36 240.774L1305.96 239.908Z" fill="#2E2E41"/>
<path d="M1365.19 262.394L1364.78 262.393L1256.36 262.038L1256.46 261.655L1284.33 151.189L1277.35 95.441C1276.03 84.8774 1281.68 74.8926 1291.42 70.5957L1294.93 69.0446L1301.61 64.1867L1310.16 94.3832L1323.84 64.1631L1329.86 70.1907L1343.46 73.7979C1351.93 76.046 1357.42 84.2908 1356.22 92.976L1356.21 93.0364L1335.45 152.279L1365.19 262.394Z" fill="#E8E9EA"/>
<path d="M1296.95 342.604L1315.11 343.517L1316.77 353.177C1316.77 353.177 1329.68 369.986 1314.16 369.205C1298.65 368.425 1272.14 371.881 1272.44 365.911C1272.74 359.941 1292.02 357.319 1292.02 357.319L1296.95 342.604Z" fill="#2E2E41"/>
<path d="M1337.2 341.546L1355.36 342.459L1357.01 352.118C1357.01 352.118 1369.93 368.927 1354.41 368.147C1338.89 367.367 1312.39 370.822 1312.69 364.853C1312.99 358.883 1332.27 356.261 1332.27 356.261L1337.2 341.546Z" fill="#2E2E41"/>
<path d="M1353.83 203.278C1353.4 210.542 1349.31 216.211 1344.69 215.942C1340.07 215.672 1336.67 209.565 1337.09 202.299C1337.22 199.394 1338.04 196.562 1339.49 194.04L1341.67 163.285L1356.08 164.616L1352.4 194.794C1353.55 197.467 1354.04 200.376 1353.83 203.278Z" fill="#FDB4B4"/>
<path d="M1279.79 200.516C1279.21 207.769 1275 213.35 1270.39 212.982C1265.77 212.614 1262.5 206.436 1263.08 199.181C1263.27 196.279 1264.15 193.465 1265.65 190.975L1268.49 160.273L1282.86 161.91L1278.54 192.003C1279.63 194.7 1280.06 197.619 1279.79 200.516Z" fill="#FDB4B4"/>
<path d="M1356.15 191.186L1335.22 189.85L1335.25 189.536L1339.43 137.202L1332.75 87.9893C1332.33 84.924 1333.17 81.9089 1335.11 79.4997C1337.05 77.0903 1339.82 75.6277 1342.9 75.3808C1348.81 74.9153 1354.04 79.1331 1354.83 84.9969L1363.71 150.618L1363.7 150.667L1356.15 191.186Z" fill="#E8E9EA"/>
<path d="M1283.27 189.182L1262.31 187.914L1262.36 187.583L1276.81 82.7452C1278.33 76.9872 1284.06 73.4456 1289.85 74.6436C1292.88 75.2702 1295.44 77.064 1297.07 79.695C1298.69 82.326 1299.15 85.4215 1298.36 88.4119L1283.27 189.182Z" fill="#E8E9EA"/>
<path d="M1309.71 103.628C1310.73 103.628 1311.56 102.798 1311.56 101.774C1311.56 100.75 1310.73 99.9199 1309.71 99.9199C1308.69 99.9199 1307.86 100.75 1307.86 101.774C1307.86 102.798 1308.69 103.628 1309.71 103.628Z" fill="#D6D7D8"/>
<path d="M1309.71 117.663C1310.73 117.663 1311.56 116.833 1311.56 115.809C1311.56 114.785 1310.73 113.955 1309.71 113.955C1308.69 113.955 1307.86 114.785 1307.86 115.809C1307.86 116.833 1308.69 117.663 1309.71 117.663Z" fill="#D6D7D8"/>
<path d="M1309.71 131.699C1310.73 131.699 1311.56 130.869 1311.56 129.845C1311.56 128.821 1310.73 127.991 1309.71 127.991C1308.69 127.991 1307.86 128.821 1307.86 129.845C1307.86 130.869 1308.69 131.699 1309.71 131.699Z" fill="#D6D7D8"/>
<path d="M1309.71 145.735C1310.73 145.735 1311.56 144.905 1311.56 143.881C1311.56 142.857 1310.73 142.027 1309.71 142.027C1308.69 142.027 1307.86 142.857 1307.86 143.881C1307.86 144.905 1308.69 145.735 1309.71 145.735Z" fill="#D6D7D8"/>
<path d="M1309.71 159.771C1310.73 159.771 1311.56 158.941 1311.56 157.917C1311.56 156.893 1310.73 156.063 1309.71 156.063C1308.69 156.063 1307.86 156.893 1307.86 157.917C1307.86 158.941 1308.69 159.771 1309.71 159.771Z" fill="#D6D7D8"/>
<path d="M1309.71 173.806C1310.73 173.806 1311.56 172.976 1311.56 171.952C1311.56 170.929 1310.73 170.099 1309.71 170.099C1308.69 170.099 1307.86 170.929 1307.86 171.952C1307.86 172.976 1308.69 173.806 1309.71 173.806Z" fill="#D6D7D8"/>
<path d="M1309.71 187.842C1310.73 187.842 1311.56 187.012 1311.56 185.989C1311.56 184.965 1310.73 184.135 1309.71 184.135C1308.69 184.135 1307.86 184.965 1307.86 185.989C1307.86 187.012 1308.69 187.842 1309.71 187.842Z" fill="#D6D7D8"/>
<path d="M1309.71 201.878C1310.73 201.878 1311.56 201.049 1311.56 200.025C1311.56 199.001 1310.73 198.171 1309.71 198.171C1308.69 198.171 1307.86 199.001 1307.86 200.025C1307.86 201.049 1308.69 201.878 1309.71 201.878Z" fill="#D6D7D8"/>
<path d="M1312.52 61.0403C1322.1 61.0403 1329.86 53.2771 1329.86 43.7008C1329.86 34.1245 1322.1 26.3613 1312.52 26.3613C1302.95 26.3613 1295.19 34.1245 1295.19 43.7008C1295.19 53.2771 1302.95 61.0403 1312.52 61.0403Z" fill="#FDB4B4"/>
<path d="M1321.61 23.4594C1322.44 25.1492 1321.12 27.2601 1319.38 27.9705C1317.64 28.681 1315.67 28.3931 1313.81 28.0974C1311.95 27.8017 1309.98 27.5212 1308.24 28.2443C1305.99 29.1798 1304.72 31.5266 1303.63 33.7043C1301.59 37.7698 1299.55 41.8353 1297.51 45.9008C1296.51 47.8871 1295.49 49.9627 1295.47 52.185C1295.44 56.2642 1298.67 59.5241 1300.41 63.2132C1302.53 67.7049 1302.36 73.2095 1299.96 77.5577C1297.56 81.9058 1292.99 84.9866 1288.07 85.5859C1286.77 85.7435 1285.4 85.7264 1284.23 85.1371C1283.06 84.5477 1282.17 83.2607 1282.39 81.9718C1282.81 79.451 1286.66 78.862 1287.37 76.4059C1287.74 75.1238 1287.09 73.7545 1286.2 72.7531C1285.32 71.7517 1284.21 70.9705 1283.37 69.9346C1281.43 67.546 1281.3 63.8588 1283.07 61.3404C1284.1 59.8603 1285.71 58.7607 1286.38 57.0818C1286.95 55.6508 1286.75 54.0422 1286.53 52.5163C1286.25 50.5556 1285.97 48.5949 1285.69 46.6342C1285.37 44.3467 1285.05 41.9771 1285.69 39.7576C1287.16 34.6713 1292.9 32.2825 1296.27 28.197C1297.84 26.2985 1298.89 24.0152 1300.49 22.1509C1303.19 19.0223 1307.43 17.2964 1311.54 17.6552C1315.65 18.0139 1319.53 20.4482 1321.64 23.996" fill="#2E2E41"/>
<path d="M1318.87 23.7803C1318.03 24.0832 1317.71 25.1866 1317.96 26.0526C1318.2 26.9186 1318.84 27.6067 1319.42 28.2906C1326.03 36.0265 1327.57 47.7278 1323.18 56.9079C1322.01 59.3497 1320.46 61.6477 1319.83 64.28C1319.37 66.1953 1319.39 68.2962 1318.33 69.9543C1317.25 71.6424 1315.11 72.7735 1314.89 74.7673C1314.76 76.0467 1315.54 77.2895 1316.58 78.0396C1317.63 78.7897 1318.91 79.133 1320.16 79.4128C1323.42 80.1402 1326.76 80.5373 1330.1 80.5961C1331.19 80.6152 1332.32 80.5916 1333.32 80.1573C1334.32 79.7229 1335.17 78.7809 1335.18 77.6907C1335.19 76.8338 1334.7 76.0434 1334.63 75.1888C1334.45 72.6282 1337.89 71.2659 1338.56 68.7876C1339 67.1583 1338.13 65.4816 1337.21 64.0704C1336.28 62.6593 1335.22 61.1774 1335.25 59.4895C1335.27 57.8736 1336.28 56.4506 1336.68 54.8834C1337.22 52.7156 1336.55 50.4481 1335.89 48.3138C1335.32 46.4992 1334.76 44.6847 1334.19 42.8702C1333.59 40.9412 1332.99 39.0123 1332.39 37.0834C1331.35 33.7159 1330.25 30.2508 1327.98 27.5499C1325.71 24.849 1321.95 23.0788 1318.61 24.1815" fill="#2E2E41"/>
<path d="M1330.69 90.9708L1329.5 90.6244C1331.97 82.1348 1326.64 66.2919 1326.58 66.133L1327.75 65.7334C1327.98 66.398 1333.27 82.1094 1330.69 90.9708Z" fill="#3F3C57"/>
<path d="M1330.09 100.722C1332.95 100.722 1335.26 98.4069 1335.26 95.551C1335.26 92.6951 1332.95 90.3799 1330.09 90.3799C1327.24 90.3799 1324.92 92.6951 1324.92 95.551C1324.92 98.4069 1327.24 100.722 1330.09 100.722Z" fill="#3F3C57"/>
<path d="M1296.12 113.858H1292.99C1292.64 113.858 1292.37 113.581 1292.37 113.239C1292.37 112.897 1292.64 112.62 1292.99 112.62H1296.12C1296.99 112.62 1297.8 112.283 1298.41 111.671C1299.02 111.06 1299.35 110.247 1299.35 109.383L1299.31 90.0669C1299.31 85.8706 1295.9 82.4577 1291.71 82.4577C1287.51 82.4577 1284.1 85.8706 1284.1 90.0657L1284.14 108.146C1284.14 109.91 1285.58 111.356 1287.34 111.369L1289.49 111.386C1289.84 111.388 1290.11 111.667 1290.11 112.01C1290.11 112.35 1289.83 112.624 1289.49 112.624H1289.49L1287.33 112.607C1284.89 112.589 1282.91 110.588 1282.9 108.148L1282.86 90.0669C1282.86 85.1881 1286.83 81.2197 1291.71 81.2197C1296.58 81.2197 1300.55 85.1881 1300.55 90.0657L1300.59 109.381C1300.59 110.576 1300.13 111.7 1299.28 112.546C1298.44 113.392 1297.32 113.858 1296.12 113.858Z" fill="#3F3C57"/>
<path d="M1289.49 114.199C1290.7 114.199 1291.68 113.217 1291.68 112.005C1291.68 110.794 1290.7 109.812 1289.49 109.812C1288.28 109.812 1287.3 110.794 1287.3 112.005C1287.3 113.217 1288.28 114.199 1289.49 114.199Z" fill="#3F3C57"/>
<path d="M1292.99 115.433C1294.2 115.433 1295.18 114.45 1295.18 113.239C1295.18 112.027 1294.2 111.045 1292.99 111.045C1291.77 111.045 1290.79 112.027 1290.79 113.239C1290.79 114.45 1291.77 115.433 1292.99 115.433Z" fill="#3F3C57"/>
<path d="M1166.36 81.6926L1165.17 81.3462C1167.65 72.8566 1162.37 56.7684 1162.32 56.6094L1163.8 57.7292C1164.03 58.3938 1168.95 72.8312 1166.36 81.6926Z" fill="#3F3C57"/>
<path d="M1124.6 83.2011L1125.78 82.8547C1123.31 74.3651 1128.65 58.5223 1128.7 58.3633L1127.43 59.2148C1127.2 59.8795 1122.01 74.3397 1124.6 83.2011Z" fill="#3F3C57"/>
<path d="M1165.77 91.4437C1168.62 91.4437 1170.94 89.1285 1170.94 86.2726C1170.94 83.4167 1168.62 81.1016 1165.77 81.1016C1162.91 81.1016 1160.6 83.4167 1160.6 86.2726C1160.6 89.1285 1162.91 91.4437 1165.77 91.4437Z" fill="#3F3C57"/>
<path d="M1130.11 115.001H1126.97C1126.63 115.001 1126.35 114.724 1126.35 114.382C1126.35 114.04 1126.63 113.763 1126.97 113.763H1130.11C1130.97 113.763 1131.78 113.427 1132.39 112.815C1133 112.203 1133.34 111.391 1133.34 110.527L1133.3 91.2105C1133.3 87.0142 1129.89 83.6013 1125.69 83.6013C1121.5 83.6013 1118.09 87.0142 1118.09 91.2093L1118.12 109.29C1118.13 111.053 1119.57 112.499 1121.33 112.513L1123.48 112.529C1123.82 112.532 1124.1 112.811 1124.1 113.153C1124.09 113.493 1123.82 113.767 1123.48 113.767H1123.47L1121.32 113.751C1118.88 113.732 1116.89 111.732 1116.89 109.292L1116.85 91.2105C1116.85 86.3317 1120.82 82.3633 1125.69 82.3633C1130.57 82.3633 1134.54 86.3317 1134.54 91.2093L1134.58 110.525C1134.58 111.72 1134.11 112.844 1133.27 113.689C1132.43 114.535 1131.3 115.001 1130.11 115.001Z" fill="#3F3C57"/>
<path d="M1123.48 115.342C1124.69 115.342 1125.67 114.36 1125.67 113.148C1125.67 111.936 1124.69 110.954 1123.48 110.954C1122.27 110.954 1121.28 111.936 1121.28 113.148C1121.28 114.36 1122.27 115.342 1123.48 115.342Z" fill="#3F3C57"/>
<path d="M1126.97 116.576C1128.18 116.576 1129.17 115.594 1129.17 114.382C1129.17 113.171 1128.18 112.188 1126.97 112.188C1125.76 112.188 1124.78 113.171 1124.78 114.382C1124.78 115.594 1125.76 116.576 1126.97 116.576Z" fill="#3F3C57"/>
<path d="M1016.29 365.142H215.208" stroke="black"/>
</g>
<path d="M1019 366L0 366" stroke="#3F3C57" stroke-width="1.8"/>
<defs>
<clipPath id="clip0_164_387">
<rect width="428.665" height="369.505" fill="white" transform="translate(1016.46)"/>
</clipPath>
<clipPath id="clip1_164_387">
<rect width="428.665" height="369.505" fill="white" transform="translate(1015.32)"/>
</clipPath>
</defs>
</svg>
